# Blender v3.3.1 OBJ File: 'veach_mis.blend'
# www.blender.org
o floor
v -10.000000 10.000001 -4.146149
v -10.000000 -9.999999 -4.146152
v 10.000000 -9.999999 -4.146152
v 10.000000 -9.999999 -4.146152
v 10.000000 10.000001 -4.146149
v -10.000000 10.000001 -4.146149
v -10.000000 2.000002 -10.000000
v 10.000000 2.000002 -10.000000
v 10.000000 1.999998 10.000000
v 10.000000 1.999998 10.000000
v -10.000000 1.999998 10.000000
v -10.000000 2.000002 -10.000000
vt 0.000000 0.000000
vt 1.000000 0.000000
vt 1.000000 1.000000
vt 0.000000 0.000000
vt 1.000000 0.000000
vt 1.000000 1.000000
vt 0.000000 0.000000
vt 1.000000 0.000000
vt 1.000000 1.000000
vt 0.000000 0.000000
vt 1.000000 0.000000
vt 1.000000 1.000000
vn 0.0000 -0.0000 1.0000
vn 0.0000 -1.0000 -0.0000
g floor_floor_mtl
s off
f 1/1/1 2/2/1 3/3/1
f 4/4/1 5/5/1 6/6/1
f 7/7/2 8/8/2 9/9/2
f 10/10/2 11/11/2 12/12/2
